<svg width="436" height="279" viewBox="0 0 436 279" fill="none" xmlns="http://www.w3.org/2000/svg">
<path d="M10.1839 24C5.67281 14.7779 0 0 0 0H436V279C436 279 423.099 239.239 402.266 220C388.758 207.526 374.082 206.183 360.893 193.5C344.288 177.53 345.457 163.602 332.888 145.5C325.25 134.5 320.29 129.22 307.428 123.5C295.251 118.085 272.42 117.5 272.42 117.5H180.765C154.669 117.5 110.75 113.5 85.2905 105C59.8307 96.5 44.5547 82.5 33.0978 66C21.6409 49.5 18.3987 40.7935 10.1839 24Z" fill="#64D5F5"/>
</svg>
